<svg xmlns="http://www.w3.org/2000/svg" width="1200" height="520" viewBox="0 0 1200 520">
<rect width="1200" height="520" fill="#0F1115"/>
<text x="60" y="70" fill="#F2F4F7" font-family="Inter, Arial" font-size="34" font-weight="700">Savoirs de Grand-Mère — Palette</text>
<text x="60" y="105" fill="#B7BEC9" font-family="Inter, Arial" font-size="18">Thème sombre sobre • herboristerie moderne</text>

<rect x="60" y="150" rx="24" ry="24" width="220" height="96" fill="#0F1115" stroke="#313A48" />
<text x="78" y="278" fill="#F2F4F7" font-family="Inter, Arial" font-size="18">bg_main</text>
<text x="78" y="304" fill="#B7BEC9" font-family="Inter, Arial" font-size="16">#0F1115</text>

<rect x="330" y="150" rx="24" ry="24" width="220" height="96" fill="#151922" stroke="#313A48" />
<text x="348" y="278" fill="#F2F4F7" font-family="Inter, Arial" font-size="18">bg_elevated</text>
<text x="348" y="304" fill="#B7BEC9" font-family="Inter, Arial" font-size="16">#151922</text>

<rect x="600" y="150" rx="24" ry="24" width="220" height="96" fill="#1A1F29" stroke="#313A48" />
<text x="618" y="278" fill="#F2F4F7" font-family="Inter, Arial" font-size="18">bg_card</text>
<text x="618" y="304" fill="#B7BEC9" font-family="Inter, Arial" font-size="16">#1A1F29</text>

<rect x="870" y="150" rx="24" ry="24" width="220" height="96" fill="#121720" stroke="#313A48" />
<text x="888" y="278" fill="#F2F4F7" font-family="Inter, Arial" font-size="18">bg_input</text>
<text x="888" y="304" fill="#B7BEC9" font-family="Inter, Arial" font-size="16">#121720</text>

<rect x="60" y="300" rx="24" ry="24" width="220" height="96" fill="#262D38" stroke="#313A48" />
<text x="78" y="428" fill="#F2F4F7" font-family="Inter, Arial" font-size="18">border_soft</text>
<text x="78" y="454" fill="#B7BEC9" font-family="Inter, Arial" font-size="16">#262D38</text>

<rect x="330" y="300" rx="24" ry="24" width="220" height="96" fill="#313A48" stroke="#313A48" />
<text x="348" y="428" fill="#F2F4F7" font-family="Inter, Arial" font-size="18">border_strong</text>
<text x="348" y="454" fill="#B7BEC9" font-family="Inter, Arial" font-size="16">#313A48</text>

<rect x="600" y="300" rx="24" ry="24" width="220" height="96" fill="#F2F4F7" stroke="#313A48" />
<text x="618" y="428" fill="#F2F4F7" font-family="Inter, Arial" font-size="18">text_primary</text>
<text x="618" y="454" fill="#B7BEC9" font-family="Inter, Arial" font-size="16">#F2F4F7</text>

<rect x="870" y="300" rx="24" ry="24" width="220" height="96" fill="#B7BEC9" stroke="#313A48" />
<text x="888" y="428" fill="#F2F4F7" font-family="Inter, Arial" font-size="18">text_secondary</text>
<text x="888" y="454" fill="#B7BEC9" font-family="Inter, Arial" font-size="16">#B7BEC9</text>

<rect x="60" y="450" rx="24" ry="24" width="220" height="96" fill="#7E8795" stroke="#313A48" />
<text x="78" y="578" fill="#F2F4F7" font-family="Inter, Arial" font-size="18">text_muted</text>
<text x="78" y="604" fill="#B7BEC9" font-family="Inter, Arial" font-size="16">#7E8795</text>

<rect x="330" y="450" rx="24" ry="24" width="220" height="96" fill="#78A686" stroke="#313A48" />
<text x="348" y="578" fill="#F2F4F7" font-family="Inter, Arial" font-size="18">accent_herb</text>
<text x="348" y="604" fill="#B7BEC9" font-family="Inter, Arial" font-size="16">#78A686</text>

<rect x="600" y="450" rx="24" ry="24" width="220" height="96" fill="#5F8770" stroke="#313A48" />
<text x="618" y="578" fill="#F2F4F7" font-family="Inter, Arial" font-size="18">accent_herb_soft</text>
<text x="618" y="604" fill="#B7BEC9" font-family="Inter, Arial" font-size="16">#5F8770</text>

<rect x="870" y="450" rx="24" ry="24" width="220" height="96" fill="#C49B61" stroke="#313A48" />
<text x="888" y="578" fill="#F2F4F7" font-family="Inter, Arial" font-size="18">accent_amber</text>
<text x="888" y="604" fill="#B7BEC9" font-family="Inter, Arial" font-size="16">#C49B61</text>

<rect x="60" y="600" rx="24" ry="24" width="220" height="96" fill="#9B7748" stroke="#313A48" />
<text x="78" y="728" fill="#F2F4F7" font-family="Inter, Arial" font-size="18">accent_amber_soft</text>
<text x="78" y="754" fill="#B7BEC9" font-family="Inter, Arial" font-size="16">#9B7748</text>

<rect x="330" y="600" rx="24" ry="24" width="220" height="96" fill="#76B58B" stroke="#313A48" />
<text x="348" y="728" fill="#F2F4F7" font-family="Inter, Arial" font-size="18">success</text>
<text x="348" y="754" fill="#B7BEC9" font-family="Inter, Arial" font-size="16">#76B58B</text>

<rect x="600" y="600" rx="24" ry="24" width="220" height="96" fill="#D2A565" stroke="#313A48" />
<text x="618" y="728" fill="#F2F4F7" font-family="Inter, Arial" font-size="18">warning</text>
<text x="618" y="754" fill="#B7BEC9" font-family="Inter, Arial" font-size="16">#D2A565</text>

<rect x="870" y="600" rx="24" ry="24" width="220" height="96" fill="#C36B6B" stroke="#313A48" />
<text x="888" y="728" fill="#F2F4F7" font-family="Inter, Arial" font-size="18">danger</text>
<text x="888" y="754" fill="#B7BEC9" font-family="Inter, Arial" font-size="16">#C36B6B</text>

<rect x="60" y="750" rx="24" ry="24" width="220" height="96" fill="#7B9FB8" stroke="#313A48" />
<text x="78" y="878" fill="#F2F4F7" font-family="Inter, Arial" font-size="18">info</text>
<text x="78" y="904" fill="#B7BEC9" font-family="Inter, Arial" font-size="16">#7B9FB8</text>
</svg>